<?xml version="1.0" encoding="UTF-8" standalone="no"?>
<!-- Created with Inkscape (http://www.inkscape.org/) -->

<svg
   width="210mm"
   height="297mm"
   viewBox="0 0 210 297"
   version="1.1"
   id="svg1"
   inkscape:version="1.3.2 (091e20e, 2023-11-25, custom)"
   sodipodi:docname="drawing.svg"
   xmlns:inkscape="http://www.inkscape.org/namespaces/inkscape"
   xmlns:sodipodi="http://sodipodi.sourceforge.net/DTD/sodipodi-0.dtd"
   xmlns="http://www.w3.org/2000/svg"
   xmlns:svg="http://www.w3.org/2000/svg">
  <sodipodi:namedview
     id="namedview1"
     pagecolor="#ffffff"
     bordercolor="#000000"
     borderopacity="0.25"
     inkscape:showpageshadow="2"
     inkscape:pageopacity="0.0"
     inkscape:pagecheckerboard="0"
     inkscape:deskcolor="#d1d1d1"
     inkscape:document-units="mm"
     inkscape:zoom="0.72426347"
     inkscape:cx="396.95499"
     inkscape:cy="561.25984"
     inkscape:window-width="1920"
     inkscape:window-height="1009"
     inkscape:window-x="1912"
     inkscape:window-y="-8"
     inkscape:window-maximized="1"
     inkscape:current-layer="layer1" />
  <defs
     id="defs1">
    <inkscape:path-effect
       effect="spiro"
       id="path-effect20"
       is_visible="true"
       lpeversion="1" />
    <inkscape:path-effect
       effect="spiro"
       id="path-effect19"
       is_visible="true"
       lpeversion="1" />
    <inkscape:path-effect
       effect="spiro"
       id="path-effect18"
       is_visible="true"
       lpeversion="1" />
    <rect
       x="432.16318"
       y="309.27972"
       width="26.233547"
       height="48.324956"
       id="rect18" />
    <inkscape:path-effect
       effect="spiro"
       id="path-effect17"
       is_visible="true"
       lpeversion="1" />
    <inkscape:path-effect
       effect="spiro"
       id="path-effect16"
       is_visible="true"
       lpeversion="1" />
    <inkscape:path-effect
       effect="spiro"
       id="path-effect15"
       is_visible="true"
       lpeversion="1" />
    <inkscape:path-effect
       effect="spiro"
       id="path-effect14"
       is_visible="true"
       lpeversion="1" />
  </defs>
  <g
     inkscape:label="Layer 1"
     inkscape:groupmode="layer"
     id="layer1">
    <path
       sodipodi:type="star"
       style="fill:#000000;stroke-width:0.264583"
       id="path17"
       inkscape:flatsided="true"
       sodipodi:sides="3"
       sodipodi:cx="107.40221"
       sodipodi:cy="88.771217"
       sodipodi:r1="36.898487"
       sodipodi:r2="18.449244"
       sodipodi:arg1="-1.5608957"
       sodipodi:arg2="-0.51369811"
       inkscape:rounded="0"
       inkscape:randomized="0"
       d="m 107.76752,51.874539 31.40549,55.661391 -63.906921,-0.63274 z"
       inkscape:transform-center-x="0.18265818"
       inkscape:transform-center-y="-9.0659853" />
    <path
       id="text17"
       style="font-size:3.175px;fill:#000000;stroke-width:0.264583"
       d="M 110.77567 86.462939 L 110.81908 88.135706 L 111.08263 88.135706 L 111.12293 86.462939 L 110.77567 86.462939 z M 110.79117 88.444214 L 110.79117 88.771326 L 111.10743 88.771326 L 111.10743 88.444214 L 110.79117 88.444214 z " />
    <text
       xml:space="preserve"
       transform="scale(0.26458333)"
       id="text18"
       style="fill:#000000;white-space:pre;shape-inside:url(#rect18)" />
    <path
       style="fill:#ffcc00;stroke-width:0.264583"
       d="m 107.40221,79.638376 c -0.14803,0.338368 -0.20454,0.716264 -0.16195,1.083133 0.0426,0.36687 0.18414,0.721776 0.40574,1.017242 0.2216,0.295466 0.52267,0.530736 0.86294,0.674337 0.34028,0.1436 0.71888,0.195165 1.08516,0.147796 0.12267,-0.01586 0.24399,-0.04258 0.36733,-0.05193 0.12334,-0.0094 0.2512,-3.72e-4 0.36329,0.05193 0.0759,0.03542 0.14236,0.08996 0.1946,0.155422 0.0522,0.06547 0.0904,0.141684 0.11488,0.221789 0.0489,0.160211 0.0427,0.333212 0.008,0.497123 -0.0691,0.327823 -0.24661,0.624829 -0.31762,0.952235 -0.0538,0.248236 -0.0444,0.507667 0.007,0.756504 0.051,0.248836 0.14273,0.487857 0.25217,0.717081 0.21887,0.458447 0.509,0.881015 0.71373,1.345953 0.10236,0.232469 0.18316,0.475937 0.21881,0.727429 0.0357,0.251493 0.0251,0.51171 -0.0513,0.753955 -0.0764,0.242245 -0.22095,0.465724 -0.4237,0.61874 -0.20275,0.153016 -0.46494,0.231348 -0.71629,0.194729 -0.0615,-0.009 -0.12211,-0.02454 -0.18404,-0.03005 -0.0619,-0.0055 -0.12695,-2.03e-4 -0.18127,0.03005 -0.058,0.03231 -0.0987,0.091 -0.11743,0.154685 -0.0188,0.06368 -0.0172,0.132022 -0.005,0.197242 0.0249,0.13044 0.0912,0.249572 0.12217,0.378701 0.0539,0.224824 -0.006,0.467132 -0.12794,0.663247 -0.12242,0.196114 -0.30323,0.350008 -0.49845,0.473857 -0.39044,0.247697 -0.849,0.388686 -1.20018,0.689463 -0.22567,0.193281 -0.39756,0.445262 -0.63418,0.624979 -0.11831,0.08986 -0.25373,0.160989 -0.40005,0.186702 -0.14633,0.02571 -0.30435,0.0027 -0.42703,-0.08105 -0.0669,-0.04566 -0.12165,-0.10798 -0.16239,-0.177954 -0.0407,-0.06997 -0.0677,-0.1475 -0.0837,-0.226872 -0.032,-0.158743 -0.0206,-0.322839 -0.003,-0.483816 0.0176,-0.160977 0.0414,-0.32232 0.0337,-0.484077 -0.008,-0.161756 -0.0495,-0.326777 -0.14993,-0.453851 -0.0858,-0.108595 -0.20858,-0.182514 -0.33649,-0.235335 -0.12791,-0.05282 -0.26271,-0.08666 -0.39414,-0.129978 -0.85515,-0.281842 -1.54564,-0.973166 -1.91502,-1.79431 -0.36938,-0.821145 -0.43432,-1.759792 -0.27843,-2.646592 0.3118,-1.773599 1.44254,-3.278819 2.55877,-4.69194 0.48331,-0.611861 0.97041,-1.220733 1.46125,-1.826567 z"
       id="path18"
       inkscape:path-effect="#path-effect18"
       inkscape:original-d="m 107.40221,79.638376 c 2.55483,-0.06091 1.67722,2.40784 2.19189,2.922508 0.1722,0.172212 0.55841,-0.172209 0.73062,0 0.0785,0.07846 0,1.707309 0,1.826569 0,0.990733 0.35179,4.410819 0,5.114391 -0.0545,0.108916 -0.31085,-0.108916 -0.36531,0 -0.10892,0.217831 0.10891,0.512797 0,0.730628 -0.2318,0.463595 -1.45878,1.45878 -1.82657,1.826567 -0.52275,0.522751 -0.65497,0.99939 -1.46126,0.730629 -0.7579,-0.252635 -0.22907,-1.48598 -0.36531,-1.82657 -0.10112,-0.252812 -0.6295,-0.112498 -0.73063,-0.365313 -0.30743,-0.768591 -0.1101,-8.300865 0.36532,-9.132842 0.38685,-0.676982 0.97417,-1.217711 1.46125,-1.826567 z" />
    <path
       style="fill:#ffcc00;stroke-width:0.264583"
       d="m 108.86347,100.82657 c -0.53796,0.69495 -1.02667,1.42801 -1.46126,2.19188 -0.25316,0.44498 -0.49414,0.9248 -0.48711,1.4367 0.004,0.25595 0.0727,0.51452 0.22055,0.72349 0.14782,0.20898 0.37803,0.36408 0.63188,0.397 0.12108,0.0157 0.24382,0.004 0.36553,-0.006 0.12171,-0.01 0.24519,-0.0175 0.36509,0.006 0.18107,0.0348 0.34172,0.13744 0.48703,0.25094 0.14531,0.1135 0.28112,0.24044 0.43858,0.33637 0.15747,0.0959 0.34349,0.15993 0.52558,0.13093 0.091,-0.0145 0.17909,-0.0527 0.2477,-0.11431 0.0686,-0.0616 0.11678,-0.14706 0.12768,-0.23861 0.008,-0.0635 -0.002,-0.12783 -0.0181,-0.18982 -0.0156,-0.062 -0.0368,-0.12247 -0.0521,-0.18454 -0.0153,-0.0621 -0.0246,-0.12661 -0.016,-0.18994 0.009,-0.0633 0.0368,-0.12574 0.0862,-0.16633 0.0487,-0.0401 0.11402,-0.0557 0.17709,-0.0547 0.0631,0.001 0.12483,0.0173 0.18534,0.0352 0.0605,0.0178 0.12094,0.0374 0.18354,0.0452 0.0626,0.008 0.12849,0.003 0.18466,-0.0257 0.0603,-0.0308 0.10513,-0.0878 0.12831,-0.15148 0.0232,-0.0637 0.0259,-0.13354 0.0156,-0.2005 -0.0205,-0.13394 -0.09,-0.25434 -0.14395,-0.37865 -0.20758,-0.47877 -0.18392,-1.02989 -0.0591,-1.53659 0.12478,-0.50669 0.3443,-0.9841 0.52402,-1.47401 0.17971,-0.48991 0.32155,-1.00738 0.2805,-1.527596 -0.0205,-0.260108 -0.0877,-0.518169 -0.21202,-0.747573 -0.1243,-0.229405 -0.3071,-0.429307 -0.53336,-0.559245 -0.29099,-0.167113 -0.64632,-0.211608 -0.97407,-0.139603 -0.32774,0.072 -0.62675,0.256637 -0.8525,0.504916 -0.21938,0.24128 -0.37171,0.542912 -0.43566,0.862685 -0.064,0.319776 -0.0394,0.656786 0.0704,0.963886 z"
       id="path19"
       inkscape:path-effect="#path-effect19"
       inkscape:original-d="m 108.86347,100.82657 c -1.80322,0.63549 -1.46126,0.73212 -1.46126,2.19188 0,0.52823 0.15292,2.34479 0.36532,2.55719 0.17221,0.17222 0.51279,-0.10891 0.73062,0 0.50053,0.25027 1.09606,1.46109 1.82657,0.36532 0.13509,-0.20264 -0.17221,-0.55842 0,-0.73063 0.17221,-0.17221 0.55842,0.17221 0.73063,0 0.17221,-0.17221 0,-0.48708 0,-0.73063 0,-1.07018 0.39845,-5.04812 0,-5.845014 -0.14437,-0.288739 -1.70588,0.123929 -1.82657,0.365313 -0.27768,0.555363 -0.24354,1.217711 -0.36531,1.826571 z" />
    <path
       style="fill:#ffcc00;stroke-width:0.264583"
       d="m 109.22878,85.848708 c -0.60528,-1.75076 -0.73284,-3.664092 -0.36531,-5.479706 0.0246,-0.121562 0.0515,-0.243262 0.0587,-0.36708 0.007,-0.123817 -0.006,-0.251204 -0.0587,-0.363546 -0.0737,-0.157441 -0.21583,-0.27034 -0.35558,-0.373696 -0.13975,-0.103356 -0.28613,-0.207579 -0.37505,-0.356933 -0.0957,-0.160733 -0.11364,-0.357085 -0.0965,-0.543363 0.0171,-0.186277 0.0665,-0.367942 0.0965,-0.552578 0.11004,-0.676789 -0.0431,-1.367787 -0.23697,-2.025488 -0.19387,-0.6577 -0.4308,-1.310171 -0.49366,-1.992961 -0.0224,-0.242858 -0.0224,-0.48777 0,-0.730628 0.0141,-0.235255 -0.0505,-0.47457 -0.18127,-0.670667 -0.13073,-0.196098 -0.32676,-0.347849 -0.54936,-0.425275 -0.26886,-0.09352 -0.57102,-0.07713 -0.8355,0.02816 -0.26447,0.105288 -0.49129,0.296126 -0.6559,0.528369 -0.16461,0.232243 -0.26852,0.504614 -0.31935,0.784702 -0.0508,0.280087 -0.0497,0.568016 -0.0158,0.850656 0.0146,0.122116 0.0353,0.243667 0.042,0.366476 0.007,0.122808 -0.001,0.24816 -0.042,0.364152 -0.0582,0.164925 -0.17936,0.300466 -0.31317,0.413061 -0.1338,0.112595 -0.28235,0.206539 -0.41746,0.317568 -0.31064,0.255278 -0.5447,0.598856 -0.68672,0.975015 -0.14201,0.376159 -0.19351,0.78398 -0.16891,1.185302 0.0492,0.802643 0.39714,1.562802 0.85563,2.223445 0.0785,0.113089 0.16049,0.224127 0.22816,0.344001 0.0677,0.119874 0.12107,0.249915 0.13715,0.386627 0.0217,0.184358 -0.0251,0.368816 -0.0538,0.552221 -0.0143,0.0917 -0.0242,0.184627 -0.0186,0.277273 0.006,0.09265 0.0271,0.185414 0.0724,0.266447 0.0428,0.07657 0.10537,0.140469 0.17381,0.195304 0.0684,0.05484 0.14306,0.101333 0.21605,0.149953 0.073,0.04862 0.14493,0.09985 0.20616,0.162638 0.0612,0.06278 0.11168,0.138084 0.13461,0.222731 0.0322,0.118909 0.008,0.244777 -0.012,0.366308 -0.0101,0.06076 -0.0192,0.121947 -0.0197,0.183541 -4.9e-4,0.06159 0.008,0.123947 0.0316,0.180779 0.0273,0.06543 0.0744,0.121576 0.13032,0.165207 0.0559,0.04363 0.12047,0.07521 0.18731,0.0989 0.13368,0.04738 0.27619,0.06382 0.413,0.101205 0.43867,0.119877 0.80768,0.46913 0.95148,0.900552 0.14381,0.431422 0.0582,0.932227 -0.22086,1.291331"
       id="path20"
       inkscape:path-effect="#path-effect20"
       inkscape:original-d="m 109.22878,85.848708 c 0.17577,-1.913464 -0.001,-3.659839 -0.36531,-5.479706 -0.0478,-0.238813 0.10891,-0.512795 0,-0.730626 -0.15403,-0.30806 -0.5766,-0.422569 -0.73063,-0.730629 -0.73063,-1.461254 0.36531,-0.182655 0,-1.095941 -0.75691,-1.892268 -0.73063,-2.097384 -0.73063,-4.018449 0,-0.243544 0.17221,-0.558416 0,-0.730628 -1.43434,0.109019 -0.30375,-0.242187 -0.73063,-1.095942 -0.26898,-0.537966 -1.79442,2.111518 -1.82656,2.191883 -0.0905,0.226123 0.10891,0.512797 0,0.730628 -0.15403,0.30806 -0.53958,0.44405 -0.73063,0.730629 -0.33452,0.501779 -0.16534,3.72242 0,4.383762 0.066,0.26416 0.31191,0.463626 0.36531,0.730628 0.0717,0.358219 -0.13567,0.756756 0,1.095941 0.12792,0.319786 0.5766,0.422566 0.73063,0.730626 0.10892,0.217831 -0.13509,0.527989 0,0.730628 0.15104,0.226558 0.57959,0.138756 0.73063,0.365313 0.63042,0.945639 -0.9733,2.191883 0.73062,2.191883" />
  </g>
</svg>
